<svg width="171.000000" height="16.000000" viewBox="0 0 171 16" fill="none" xmlns="http://www.w3.org/2000/svg" xmlns:xlink="http://www.w3.org/1999/xlink">
	<desc>
			Created with Pixso.
	</desc>
	<defs>
		<clipPath id="clip0_10173">
			<rect id="Company logo" rx="-0.500000" width="170.000000" height="15.000000" transform="translate(0.500000 0.500000)" fill="white" fill-opacity="0"/>
		</clipPath>
	</defs>
	<rect id="Company logo" rx="-0.500000" width="170.000000" height="15.000000" transform="translate(0.500000 0.500000)" fill="#FFFFFF" fill-opacity="0"/>
	<g clip-path="url(#clip0_10173)">
		<path id="Vector" d="M0 13.23L0 0L13.54 0L13.54 2.24L3.07 2.24L3.07 5.2L9.19 5.2L9.19 7.45L3.07 7.45L3.07 10.73L13.67 10.73L13.67 13.23L0 13.23Z" fill="#061551" fill-opacity="1.000000" fill-rule="nonzero"/>
		<path id="Vector" d="M18.12 4.94C18.12 3.96 18.3 3.28 18.68 2.93C19.06 2.57 19.81 2.38 20.93 2.38L29.32 2.38C30.45 2.38 31.2 2.57 31.58 2.93C31.95 3.28 32.14 3.96 32.14 4.94L32.14 10.63C32.14 11.62 31.94 12.3 31.55 12.66C31.16 13.02 30.42 13.21 29.32 13.23L28.05 13.23L29.47 16L26.85 16L25.63 13.23L20.93 13.23C19.84 13.23 19.09 13.04 18.7 12.68C18.31 12.32 18.12 11.64 18.12 10.63L18.12 4.94ZM20.75 11.15L24.72 11.15L23.6 8.82L25.5 8.09L26.99 11.15L29.49 11.15L29.49 4.37L20.75 4.37L20.75 11.15Z" fill="#061551" fill-opacity="1.000000" fill-rule="nonzero"/>
		<path id="Vector" d="M39.33 2.38L39.33 11.2L46.88 11.2L46.88 2.38L49.54 2.38L49.54 10.66C49.54 11.65 49.34 12.32 48.95 12.68C48.55 13.04 47.8 13.23 46.69 13.23L39.51 13.23C38.41 13.23 37.67 13.05 37.28 12.69C36.9 12.33 36.7 11.65 36.7 10.66L36.7 2.38L39.33 2.38Z" fill="#061551" fill-opacity="1.000000" fill-rule="nonzero"/>
		<path id="Vector" d="M52.71 13.23L59.14 2.38L61.68 2.38L68.21 13.23L65.25 13.23L63.89 10.85L56.71 10.85L55.34 13.23L52.71 13.23ZM57.84 8.87L62.81 8.87L60.28 4.35L57.84 8.87Z" fill="#061551" fill-opacity="1.000000" fill-rule="nonzero"/>
		<path id="Vector" d="M78.04 2.36L78.04 13.23L74.95 13.23L74.95 2.36L68.89 2.36L68.89 0L84.13 0L84.13 2.36L78.04 2.36Z" fill="#061551" fill-opacity="1.000000" fill-rule="nonzero"/>
		<path id="Vector" d="M85.28 13.23L91.71 2.38L94.25 2.38L100.79 13.23L97.82 13.23L96.46 10.85L89.28 10.85L87.92 13.23L85.28 13.23ZM90.41 8.87L95.38 8.87L92.86 4.35L90.41 8.87Z" fill="#061551" fill-opacity="1.000000" fill-rule="nonzero"/>
		<path id="Vector" d="M103.49 13.23L103.49 2.38L106.16 2.38L106.16 11.2L114.66 11.2L114.66 13.23L103.49 13.23Z" fill="#061551" fill-opacity="1.000000" fill-rule="nonzero"/>
		<path id="Vector" d="M117.63 13.23L117.63 2.38L129.26 2.38L129.26 4.3L120.3 4.3L120.3 6.66L125.52 6.66L125.52 8.53L120.3 8.53L120.3 11.2L129.4 11.2L129.4 13.23L117.63 13.23Z" fill="#061551" fill-opacity="1.000000" fill-rule="nonzero"/>
		<path id="Vector" d="M133.21 13.23L133.21 2.38L135.03 2.38L144.22 9.58L144.22 2.38L146.61 2.38L146.61 13.23L144.78 13.23L135.61 5.92L135.61 13.23L133.21 13.23Z" fill="#061551" fill-opacity="1.000000" fill-rule="nonzero"/>
		<path id="Vector" d="M157.91 4.32L157.91 13.23L155.28 13.23L155.28 4.32L150.04 4.32L150.04 2.38L163.16 2.38L163.16 4.32L157.91 4.32Z" fill="#061551" fill-opacity="1.000000" fill-rule="nonzero"/>
		<path id="Vector" d="M169.32 9.25L169.78 9.25C170.01 9.25 170.16 9.32 170.26 9.45C170.35 9.58 170.4 9.83 170.4 10.2L170.4 12.28C170.4 12.68 170.34 12.94 170.24 13.05C170.14 13.17 169.84 13.23 169.32 13.23L167.03 13.23C166.8 13.23 166.64 13.16 166.55 13.03C166.45 12.9 166.41 12.64 166.41 12.28L166.41 10.2C166.41 9.81 166.46 9.55 166.56 9.43C166.66 9.31 166.97 9.25 167.49 9.25L169.32 9.25Z" fill="#FF7900" fill-opacity="1.000000" fill-rule="nonzero"/>
	</g>
</svg>
